<?xml version="1.0" standalone="no"?>
<!DOCTYPE svg PUBLIC "-//W3C//DTD SVG 20010904//EN"
 "http://www.w3.org/TR/2001/REC-SVG-20010904/DTD/svg10.dtd">
<svg version="1.0" xmlns="http://www.w3.org/2000/svg"
 width="700.000000pt" height="700.000000pt" viewBox="0 0 700.000000 700.000000"
 preserveAspectRatio="xMidYMid meet">
<metadata>
Created by potrace 1.14, written by Peter Selinger 2001-2017
</metadata>
<g transform="translate(0.000000,700.000000) scale(0.100000,-0.100000)"
fill="#000000" stroke="none">
<path d="M3398 6115 c-2 -1 -34 -5 -72 -9 -38 -4 -71 -8 -75 -10 -3 -2 -27 -7
-52 -10 -154 -21 -389 -119 -566 -237 -96 -64 -120 -85 -238 -204 -82 -83
-213 -247 -227 -284 -2 -5 -39 -12 -83 -16 -309 -25 -586 -155 -810 -380 -171
-170 -292 -379 -349 -600 -117 -456 14 -942 344 -1276 108 -109 187 -168 322
-239 l93 -49 1 -843 0 -843 26 -55 c31 -67 75 -113 143 -148 l50 -27 1590 0
1590 0 55 26 c95 46 150 116 167 215 4 27 8 415 7 862 l0 814 68 34 c247 124
445 319 577 565 47 89 112 263 126 339 50 264 36 490 -41 719 -34 100 -129
281 -189 362 -69 91 -224 241 -309 299 -206 139 -397 207 -636 227 -41 3 -76
10 -78 14 -15 38 -146 202 -227 285 -145 148 -269 237 -445 322 -77 37 -242
97 -294 106 -12 2 -61 11 -111 21 -72 13 -347 29 -357 20z m198 -589 c173 -12
383 -100 519 -216 117 -100 198 -207 276 -363 56 -112 121 -166 225 -184 27
-5 69 -6 94 -2 54 7 180 4 235 -6 325 -59 587 -378 588 -716 0 -330 -205 -622
-503 -714 -164 -51 -221 -89 -268 -179 l-27 -51 -3 -265 c-2 -145 -7 -267 -12
-270 -4 -3 -556 -5 -1227 -4 l-1218 0 -5 265 c-4 221 -8 270 -22 302 -46 101
-103 145 -241 188 -55 17 -125 44 -156 61 -200 108 -330 297 -376 543 -7 37
-7 191 0 225 39 200 127 351 271 467 75 61 181 114 273 138 70 18 202 25 272
16 55 -8 132 5 178 30 68 35 109 84 156 184 85 182 231 336 413 439 68 38 213
91 277 102 56 9 178 20 190 18 6 -1 47 -5 91 -8z m1112 -3555 l22 -1 -2 -252
-3 -251 -1225 0 -1225 0 -3 244 c-1 134 -1 248 2 254 2 7 398 9 1207 8 662 -1
1214 -2 1227 -2z"/>
</g>
</svg>
